<svg xmlns="http://www.w3.org/2000/svg" xmlns:xlink="http://www.w3.org/1999/xlink" viewBox="0 0 500 500"><defs><style>.cls-1{fill:none;}.cls-2{isolation:isolate;}.cls-3{opacity:0.3;mix-blend-mode:multiply;}.cls-4{fill:#939393;}.cls-5{fill:#6b6b6b;}.cls-6{clip-path:url(#clip-path);}</style><clipPath id="clip-path"><path class="cls-1" d="M381.63,127.94c68.08,78.34,41.71,199.57-17.19,245.16-36.39,28.16-91.08,27.86-118.27,28-34.33.2-71.73-6.6-96.69-11.14-22.19-4-33.29-6.06-38.12-8.78C61,352.84,39.74,186,136.47,110.78,205.18,57.34,317.85,54.53,381.63,127.94Z"/></clipPath></defs><g class="cls-2"><g id="Vrstva_1" data-name="Vrstva 1"><g class="cls-3"><polygon points="52.9 48.07 94.81 56 151.17 48.07 229.56 56 326.88 52.03 369.27 56.53 442.21 48.07 458.07 48.07 458.07 115.52 455.71 132.65 458.07 126.43 456.89 254.39 456.89 315.89 459.65 447.82 456.42 447.82 454.52 458.73 427.05 452.78 432.03 458.73 388.69 458.73 341.57 448.81 262.94 447.82 259.39 440.88 259.16 448.32 187.88 454.76 118.85 444.85 97.89 449.31 56.45 458.73 48.99 458.73 52.19 448.81 48.99 450.3 51.59 359.54 51.59 200.33 50.29 91.71 52.78 92.7 50.53 77.26 52.9 48.07"/><path d="M458.66,464.88,440.58,461l2.43,2.9-55.37-.11L341,453.94l-76.86-1v0l-76.4,6.91-.59-.09L119,450.05,99,454.33l-42.51,9.54H42l1.75-5.44-.08,0,2.84-99.07V200.33L45.07,84.1l1.34.54-1-7.21L48.24,42l46.7,8.84,56.13-7.9,78.64,8,97.34-4,42.19,4.48,73-8.44h21V98.52l.26-.7L462,254.44v61.45L464.9,453h-4.17ZM389.23,453.6h31.82l-7.52-9,36.85,8,1.72-9.89h2.31L451.76,316V254.39l.92-99.35-8.23,21.63,8.49-61.5v-62H442.51L369.3,61.69l-42.58-4.51-97.32,4-78.13-7.91-56.58,8-37.14-7L55.69,77.1l3.45,23.67-3.63-1.45,1.22,101V359.54l-2.37,82.6,6.31-2.94-4.62,14.36,40.7-9.26,21.92-4.67,69.34,10,66.16-6,.73-22.8,11.21,21.92,76.51,1.06Z"/></g><polygon class="cls-4" points="46.05 41.22 87.97 49.16 144.33 41.22 222.71 49.16 320.04 45.19 362.43 49.69 435.37 41.22 451.23 41.22 451.23 108.67 448.86 125.8 451.23 119.59 450.05 247.55 450.05 309.05 452.81 440.98 449.57 440.98 447.68 451.89 420.21 445.94 425.18 451.89 381.85 451.89 334.72 441.97 256.1 440.98 252.55 434.03 252.31 441.47 181.03 447.92 112 438 91.05 442.46 49.6 451.89 42.14 451.89 45.34 441.97 42.14 443.46 44.75 352.69 44.75 193.49 43.45 84.87 45.93 85.86 43.68 70.42 46.05 41.22"/><path class="cls-5" d="M451.82,458l-18.09-3.92,2.43,2.9-55.37-.11-46.64-9.81-76.85-1v0l-76.4,6.92-.6-.09-68.12-9.79-20.06,4.27L49.61,457H35.1l1.75-5.44-.07,0,2.84-99.07V193.49L38.22,77.25l1.35.54-1-7.21L41.4,35.12,88.09,44l56.14-7.91,78.63,8,97.35-4,42.19,4.47,73-8.43h21V91.67l.27-.69L455.18,247.6v61.45l2.87,137.06h-4.16Zm-69.44-11.28H414.2l-7.52-9,36.86,8,1.71-9.9h2.32l-2.66-126.68V247.55l.92-99.35-8.23,21.62,8.5-61.5v-62H435.66l-73.21,8.49-42.58-4.52-97.31,4-78.13-7.91-56.59,8-37.13-7L48.85,70.26,52.3,93.93l-3.63-1.45,1.21,100.94V352.69L47.52,435.3l6.31-2.95L49.2,446.72l40.71-9.26,21.92-4.67,69.34,10,66.15-6,.73-22.8,11.21,21.91L335.78,437Z"/><g class="cls-6"><polygon class="cls-5" points="274.37 149.59 266 160.92 246.3 146.38 231.75 166.09 220.41 157.72 234.95 138.02 215.25 123.48 223.62 112.14 243.32 126.68 257.86 106.97 269.2 115.34 254.66 135.05 274.37 149.59"/><path class="cls-5" d="M145.43,425.38h-.12a5.66,5.66,0,0,1-5.54-5.78c.08-3.46.27-6.77.58-10.1a5.66,5.66,0,1,1,11.27,1.07c-.29,3.06-.46,6.09-.53,9.28A5.66,5.66,0,0,1,145.43,425.38Z"/><path class="cls-5" d="M151.35,390.3a5.57,5.57,0,0,1-1.87-.32,5.66,5.66,0,0,1-3.47-7.21A80.67,80.67,0,0,1,155.3,364a5.67,5.67,0,0,1,9.37,6.37,69.65,69.65,0,0,0-8,16.12A5.65,5.65,0,0,1,151.35,390.3Zm27.46-35.08a5.66,5.66,0,0,1-2.8-10.59,67.85,67.85,0,0,1,19.92-7.14,5.66,5.66,0,1,1,2.34,11.07,56.32,56.32,0,0,0-16.68,5.92A5.62,5.62,0,0,1,178.81,355.22Zm134.59-3a5.66,5.66,0,0,1-.12-11.32,43,43,0,0,0,16.82-3.6,5.66,5.66,0,1,1,4.52,10.38,55,55,0,0,1-21.08,4.54Zm-25.81-2.78a6.09,6.09,0,0,1-.95-.08l-1.27-.22c-5.59-.95-11.38-1.93-17.79-2.76A5.66,5.66,0,1,1,269,335.14c6.63.85,12.53,1.85,18.24,2.82l1.26.21a5.67,5.67,0,0,1-.94,11.25Zm-64.72-4.2a5.66,5.66,0,0,1-.44-11.31c5.9-.46,11.8-.69,17.56-.69h2.44a5.66,5.66,0,0,1-.12,11.32c-6.13-.07-12.6.15-19,.65ZM353,332.66a5.65,5.65,0,0,1-4.28-9.36,77.9,77.9,0,0,0,10-15.12,5.66,5.66,0,0,1,10.05,5.21,88.68,88.68,0,0,1-11.54,17.31A5.63,5.63,0,0,1,353,332.66Zm20.33-40.4a5.55,5.55,0,0,1-1.65-.25,5.66,5.66,0,0,1-3.77-7.06c1.47-4.84,2.68-9.43,3.74-13.47q.63-2.36,1.33-5.1a5.66,5.66,0,1,1,11,2.76c-.47,1.87-.92,3.61-1.34,5.19-1.1,4.17-2.33,8.87-3.87,13.91A5.65,5.65,0,0,1,373.33,292.26Zm9.57-44.45-.45,0a5.66,5.66,0,0,1-5.2-6.09c.22-2.87.34-5.74.34-8.53a98.29,98.29,0,0,0-.5-9.94,5.66,5.66,0,1,1,11.26-1.15,109.5,109.5,0,0,1,.56,11.09c0,3.08-.13,6.25-.38,9.42A5.66,5.66,0,0,1,382.9,247.81Zm-6.32-44.69a5.66,5.66,0,0,1-5.26-3.55A84.86,84.86,0,0,0,366.19,189c-1.08-1.88-2.23-3.74-3.44-5.53a5.66,5.66,0,0,1,9.38-6.34c1.36,2,2.67,4.12,3.89,6.25a96.86,96.86,0,0,1,5.81,12,5.66,5.66,0,0,1-5.25,7.77Zm-26.51-36.47a5.64,5.64,0,0,1-3.65-1.34,99.18,99.18,0,0,0-15.15-10.51,5.66,5.66,0,0,1,5.58-9.85,111.26,111.26,0,0,1,16.88,11.71,5.66,5.66,0,0,1-3.66,10Z"/><path class="cls-5" d="M310.1,145.32a5.52,5.52,0,0,1-1.64-.24c-3-.91-6-1.66-8.89-2.25a5.66,5.66,0,1,1,2.24-11.09c3.22.65,6.55,1.49,9.91,2.5a5.66,5.66,0,0,1-1.62,11.08Z"/></g></g></g></svg>