<svg xmlns="http://www.w3.org/2000/svg" viewBox="0 0 500 500"><defs><style>.cls-1{isolation:isolate;}.cls-2{opacity:0.3;mix-blend-mode:multiply;}.cls-3{fill:#939393;}.cls-4{fill:#6b6b6b;}</style></defs><g class="cls-1"><g id="Vrstva_1" data-name="Vrstva 1"><g class="cls-2"><polygon points="52.9 48.07 94.81 56 151.17 48.07 229.56 56 326.88 52.03 369.27 56.53 442.21 48.07 458.07 48.07 458.07 115.52 455.71 132.65 458.07 126.43 456.89 254.39 456.89 315.89 459.65 447.82 456.42 447.82 454.52 458.73 427.05 452.78 432.03 458.73 388.69 458.73 341.57 448.81 262.94 447.82 259.39 440.88 259.16 448.32 187.88 454.76 118.85 444.85 97.89 449.31 56.45 458.73 48.99 458.73 52.19 448.81 48.99 450.3 51.59 359.54 51.59 200.33 50.29 91.71 52.78 92.7 50.53 77.26 52.9 48.07"/><path d="M458.66,464.88,440.58,461l2.43,2.9-55.37-.11L341,453.94l-76.86-1v0l-76.4,6.91-.59-.09L119,450.05,99,454.33l-42.51,9.54H42l1.75-5.44-.08,0,2.84-99.07V200.33L45.07,84.1l1.34.54-1-7.21L48.24,42l46.7,8.84,56.13-7.9,78.64,8,97.34-4,42.19,4.48,73-8.44h21V98.52l.26-.7L462,254.44v61.45L464.9,453h-4.17ZM389.23,453.6h31.82l-7.52-9,36.85,8,1.72-9.89h2.31L451.76,316V254.39l.92-99.35-8.23,21.63,8.49-61.5v-62H442.51L369.3,61.69l-42.58-4.51-97.32,4-78.13-7.91-56.58,8-37.14-7L55.69,77.1l3.45,23.67-3.63-1.45,1.22,101V359.54l-2.37,82.6,6.31-2.94-4.62,14.36,40.7-9.26,21.92-4.67,69.34,10,66.16-6,.73-22.8,11.21,21.92,76.51,1.06Z"/></g><polygon class="cls-3" points="46.05 41.22 87.97 49.16 144.33 41.22 222.71 49.16 320.04 45.19 362.43 49.69 435.37 41.22 451.23 41.22 451.23 108.67 448.86 125.8 451.23 119.59 450.05 247.55 450.05 309.05 452.81 440.98 449.57 440.98 447.68 451.89 420.21 445.94 425.18 451.89 381.85 451.89 334.72 441.97 256.1 440.98 252.55 434.03 252.31 441.47 181.03 447.92 112 438 91.05 442.46 49.6 451.89 42.14 451.89 45.34 441.97 42.14 443.46 44.75 352.69 44.75 193.49 43.45 84.87 45.93 85.86 43.68 70.42 46.05 41.22"/><path class="cls-4" d="M451.82,458l-18.09-3.92,2.43,2.9-55.37-.11-46.64-9.81-76.85-1v0l-76.4,6.92-.6-.09-68.12-9.79-20.06,4.27L49.61,457H35.1l1.75-5.44-.07,0,2.84-99.07V193.49L38.22,77.25l1.35.54-1-7.21L41.4,35.12,88.09,44l56.14-7.91,78.63,8,97.35-4,42.19,4.47,73-8.43h21V91.67l.27-.69L455.18,247.6v61.45l2.87,137.06h-4.16Zm-69.44-11.28H414.2l-7.52-9,36.86,8,1.71-9.9h2.32l-2.66-126.68V247.55l.92-99.35-8.23,21.62,8.5-61.5v-62H435.66l-73.21,8.49-42.58-4.52-97.31,4-78.13-7.91-56.59,8-37.13-7L48.85,70.26,52.3,93.93l-3.63-1.45,1.21,100.94V352.69L47.52,435.3l6.31-2.95L49.2,446.72l40.71-9.26,21.92-4.67,69.34,10,66.15-6,.73-22.8,11.21,21.91L335.78,437Z"/><path class="cls-4" d="M335.47,220.78a27.11,27.11,0,0,0-19.4,8.26c-18.27-12.83-42.91-21.09-70.21-22L260,142.22,305.2,152.5a20.26,20.26,0,0,0,20.06,20.38,20.63,20.63,0,1,0-18.07-29.83l-49.87-11.22c-2.51-.68-5,1.15-5.64,3.7L236.11,207c-27.09,1.14-51.47,9.39-69.8,22.24a27,27,0,0,0-19.66-8.48c-28.46,0-37.79,38.76-11.72,52a59.14,59.14,0,0,0-1.34,12.84c0,43.54,48.34,78.82,107.69,78.82,59.61,0,107.94-35.28,107.94-78.82a50.22,50.22,0,0,0-1.58-13.05c25.54-13.3,16.14-51.78-12.17-51.8ZM176.29,275.55a20.2,20.2,0,1,1,20.33,20.38,20.4,20.4,0,0,1-20.33-20.38ZM286,324.12c-18.64,18.91-71.23,18.91-89.88,0a4.91,4.91,0,1,1,6.77-7.12c14.23,14.81,61.44,15.06,76.29,0a4.93,4.93,0,0,1,6.82,7.12ZM285.6,296a20.25,20.25,0,0,1-20.06-20.36c0-11.43,9-20.63,20.06-20.63a20.5,20.5,0,0,1,0,41Z"/></g></g></svg>