<svg xmlns="http://www.w3.org/2000/svg" viewBox="0 0 500 500"><defs><style>.cls-1{isolation:isolate;}.cls-2{opacity:0.3;mix-blend-mode:multiply;}.cls-3{fill:#e5e3da;}.cls-4{fill:#1f42b2;}.cls-5{fill:none;stroke:#fff;stroke-miterlimit:10;stroke-width:1.5px;}.cls-6{fill:#fff;}</style></defs><g class="cls-1"><g id="Vrstva_1" data-name="Vrstva 1"><g class="cls-2"><polygon points="25.47 38.64 72.61 46.89 135.99 38.64 224.15 46.89 333.61 42.76 381.28 47.44 463.31 38.64 481.15 38.64 481.15 108.73 478.49 126.53 481.15 120.07 479.82 253.03 479.82 316.94 482.92 454.02 479.29 454.02 477.15 465.36 446.26 459.17 451.85 465.36 403.12 465.36 350.12 455.05 261.7 454.02 257.7 446.81 257.44 454.54 177.27 461.24 99.64 450.93 76.07 455.57 29.46 465.36 21.08 465.36 24.67 455.05 21.08 456.6 24 362.29 24 196.86 22.54 83.99 25.34 85.02 22.81 68.98 25.47 38.64"/></g><polygon class="cls-3" points="23.47 36.64 70.61 44.89 133.99 36.64 222.15 44.89 331.61 40.76 379.28 45.44 461.31 36.64 479.15 36.64 479.15 106.73 476.49 124.53 479.15 118.07 477.82 251.03 477.82 314.94 480.92 452.02 477.29 452.02 475.15 463.36 444.26 457.17 449.85 463.36 401.12 463.36 348.12 453.05 259.7 452.02 255.7 444.81 255.44 452.54 175.27 459.24 97.64 448.93 74.07 453.57 27.46 463.36 19.08 463.36 22.67 453.05 19.08 454.6 22 360.29 22 194.86 20.54 81.99 23.34 83.02 20.81 66.98 23.47 36.64"/><rect class="cls-4" x="41.06" y="51.28" width="421.48" height="388.72"/><rect class="cls-5" x="59.01" y="66.98" width="385.14" height="357.32"/><rect class="cls-6" x="158.79" y="79.59" width="1.23" height="327.77"/><rect class="cls-6" x="334.55" y="79.59" width="1.23" height="327.77"/><rect class="cls-6" x="77.26" y="123.82" width="346.98" height="1.41"/><rect class="cls-6" x="77.26" y="244.93" width="346.98" height="1.41"/><rect class="cls-6" x="77.26" y="366.04" width="346.98" height="1.41"/><path class="cls-6" d="M249.62,374.67a122.14,122.14,0,0,1-75.47-25.83,126.09,126.09,0,0,1-43.86-65.17L125,264.79l49,20.44,36.93,15.4a8.32,8.32,0,0,0,11-4.59,8.64,8.64,0,0,0-4.54-11.25l-36.49-15.22-55.38-23.11.54-6.86A125.06,125.06,0,0,1,165.26,158a123,123,0,0,1,84.36-33.41c68.38,0,124,56.1,124,125.06S318,374.67,249.62,374.67Zm-21.5-113.19A33.77,33.77,0,0,1,246.37,280c.06.15.12.29.17.43l32-23.06a38.56,38.56,0,0,1-28.47-28.75l-22.38,32.74Zm59.33-54a12.31,12.31,0,1,0,12.12,12.31A12.23,12.23,0,0,0,287.45,207.47Z"/><path class="cls-4" d="M249.62,134.06c63.24,0,114.51,51.74,114.51,115.56S312.86,365.17,249.62,365.17c-52.42,0-96.58-35.56-110.18-84.06l43.9,18.31A32.39,32.39,0,0,0,247.53,293c0-.51,0-1,0-1.55l38.93-28,1,0c23.81,0,43.19-19.56,43.19-43.59s-19.38-43.58-43.19-43.58-43.18,19.56-43.18,43.58v.56l-27.3,39.93c-.59,0-1.19-.05-1.8-.05A31.92,31.92,0,0,0,196.88,266L135.5,240.35c4.68-59.48,54-106.29,114.12-106.29m37.79,56.73a29,29,0,1,1-28.78,29,28.94,28.94,0,0,1,28.78-29m0,50.8a21.81,21.81,0,1,0-21.61-21.81,21.71,21.71,0,0,0,21.61,21.81m-72.29,26.78a24,24,0,0,1,9.28,1.87,24.58,24.58,0,0,1-9.38,47.21,24.19,24.19,0,0,1-21.86-13.92l14.06,5.87a17.83,17.83,0,0,0,23.42-9.73A18.12,18.12,0,0,0,221,276L206.51,270a24.39,24.39,0,0,1,8.65-1.6m34.46-153.31a132.48,132.48,0,0,0-90.85,36,134.61,134.61,0,0,0-42.21,87.83l-.92,11.73-5.08-2.12,10.59,37.77a135.58,135.58,0,0,0,47.18,70.11A132.74,132.74,0,0,0,344.09,344.7a135.31,135.31,0,0,0,0-190.17,132.15,132.15,0,0,0-94.47-39.47Zm37.83,107.53a2.82,2.82,0,1,1,2.62-2.81,2.72,2.72,0,0,1-2.62,2.81Zm-46.1,35.66,7.19-10.51a48.53,48.53,0,0,0,11.35,11.35l-10.32,7.43a42.65,42.65,0,0,0-8.22-8.27Z"/></g></g></svg>