<svg xmlns="http://www.w3.org/2000/svg" viewBox="0 0 500 500"><defs><style>.cls-1{isolation:isolate;}.cls-2{opacity:0.3;mix-blend-mode:multiply;}.cls-3{fill:#e5e3da;}.cls-4{fill:#1f42b2;}.cls-5{fill:none;stroke:#fff;stroke-miterlimit:10;stroke-width:1.5px;}.cls-6{fill:#fff;}</style></defs><g class="cls-1"><g id="Vrstva_1" data-name="Vrstva 1"><g class="cls-2"><polygon points="25.47 38.64 72.61 46.89 135.99 38.64 224.15 46.89 333.61 42.76 381.28 47.44 463.31 38.64 481.15 38.64 481.15 108.73 478.49 126.53 481.15 120.07 479.82 253.03 479.82 316.94 482.92 454.02 479.29 454.02 477.15 465.36 446.26 459.17 451.85 465.36 403.12 465.36 350.12 455.05 261.7 454.02 257.7 446.81 257.44 454.54 177.27 461.24 99.64 450.93 76.07 455.57 29.46 465.36 21.08 465.36 24.67 455.05 21.08 456.6 24 362.29 24 196.86 22.54 83.99 25.34 85.02 22.81 68.98 25.47 38.64"/></g><polygon class="cls-3" points="23.47 36.64 70.61 44.89 133.99 36.64 222.15 44.89 331.61 40.76 379.28 45.44 461.31 36.64 479.15 36.64 479.15 106.73 476.49 124.53 479.15 118.07 477.82 251.03 477.82 314.94 480.92 452.02 477.29 452.02 475.15 463.36 444.26 457.17 449.85 463.36 401.12 463.36 348.12 453.05 259.7 452.02 255.7 444.81 255.44 452.54 175.27 459.24 97.64 448.93 74.07 453.57 27.46 463.36 19.08 463.36 22.67 453.05 19.08 454.6 22 360.29 22 194.86 20.54 81.99 23.34 83.02 20.81 66.98 23.47 36.64"/><rect class="cls-4" x="41.06" y="51.28" width="421.48" height="388.72"/><rect class="cls-5" x="59.01" y="66.98" width="385.14" height="357.32"/><rect class="cls-6" x="158.79" y="79.59" width="1.23" height="327.77"/><rect class="cls-6" x="334.55" y="79.59" width="1.23" height="327.77"/><rect class="cls-6" x="77.26" y="123.82" width="346.98" height="1.41"/><rect class="cls-6" x="77.26" y="244.93" width="346.98" height="1.41"/><rect class="cls-6" x="77.26" y="366.04" width="346.98" height="1.41"/><path class="cls-6" d="M190.39,345.78c-53.23-1.69-74.08-36.65-74.94-38.14l-1.28-2.2v-2.56c0-72.37,31.48-130.27,32.82-132.7l1-1.79,1.63-1.22c32.37-24.28,63.74-25,67.21-25h.45l4.29.12,2.8,3.3,5.85,7a194.93,194.93,0,0,1,43.28,0h.05l9-10.27,4.21-.12h.45c3.47,0,34.84.7,67.21,25l1.63,1.22,1,1.79c1.34,2.43,32.83,60.33,32.83,132.7v2.58l-1.3,2.23c-.87,1.48-22,36.41-75.14,38.09l-4.62.15-3-3.55c-.33-.39-8.07-9.65-14.67-18l-1.29-1.63c-2.31.51-4.63,1-7,1.36a159.32,159.32,0,0,1-29.22,2.7,170.51,170.51,0,0,1-31.11-2.93c-2.76-.53-5.5-1.13-8.24-1.79l-1.46,1.85c-6.57,8.33-14.76,18.29-14.84,18.39l-3,3.61ZM291.12,243.16c-7.12,0-12.91,6.68-12.91,14.89s5.91,14.9,12.91,14.9S304,266.26,304,258.05,298.24,243.16,291.12,243.16Zm-80.21,0c-7.12,0-12.92,6.68-12.92,14.89s5.92,14.9,12.92,14.9,12.91-6.69,12.91-14.9v-.15a15.35,15.35,0,0,0-4.25-11A12.16,12.16,0,0,0,210.91,243.16Z"/><path class="cls-4" d="M287.19,151.69c2.93,0,31.53.59,61.51,23.08,0,0,31.64,57.35,31.64,128.11,0,0-18.68,31.87-67.24,33.41,0,0-7.92-9.45-14.51-17.8,28.79-8.14,39.78-26.16,39.78-26.16a125.64,125.64,0,0,1-25.27,13,144.52,144.52,0,0,1-31.87,9.45,148.85,148.85,0,0,1-27.55,2.55,160,160,0,0,1-29.37-2.77,184.47,184.47,0,0,1-32.3-9.45,128.6,128.6,0,0,1-16-7.47c-.66-.44-1.32-.66-2-1.1a3,3,0,0,1-.88-.66c-3.71-2.06-5.87-3.54-6.13-3.71.31.52,11,17.69,38.44,25.91-6.6,8.35-14.73,18.24-14.73,18.24-48.56-1.54-67-33.41-67-33.41,0-70.76,31.64-128.11,31.64-128.11,30-22.49,58.58-23.08,61.51-23.08h.24l2.2,2.64c-39.56,11.43-57.8,28.79-57.8,28.79s4.84-2.64,13-6.38c23.51-10.33,42.19-13.18,49.88-13.84a21.68,21.68,0,0,1,3.74-.44,185.75,185.75,0,0,1,44.39-.44,179.15,179.15,0,0,1,66.15,21.1s-17.36-16.49-54.72-27.91l3.07-3.52h.25m3.93,130.76c12.53,0,22.41-11,22.41-24.4s-9.88-24.39-22.41-24.39-22.42,11-22.42,24.39,10.11,24.4,22.42,24.4m-80.21,0c12.53,0,22.41-11,22.41-24.4.22-13.4-9.88-24.39-22.41-24.39s-22.42,11-22.42,24.39,10.11,24.4,22.42,24.4m76.28-149.76h-.67l-8.29.24-5.58,6.24-3,3.47c-5.79-.5-11.66-.75-17.51-.75s-11.92.26-17.82.77l-.42-.51-2.2-2.63L226.17,133l-8.69-.25h-.66c-6.19,0-38.8,1.3-72.91,26.88L140.65,162l-2,3.58c-1.39,2.51-34,62.5-34,137.29V308l2.56,4.42c1.08,1.87,7.17,11.75,20.21,21.7,11.95,9.13,32.53,20.21,62.65,21.17l9.34.29,5.94-7.22c.3-.36,6.64-8.08,12.71-15.69l2.63.53h.12a179.73,179.73,0,0,0,32.85,3.09,168.85,168.85,0,0,0,30.9-2.85l1.44-.25c6.05,7.56,12.21,14.93,12.51,15.28l5.93,7.09,9.24-.29c30.09-1,50.72-12,62.72-21.14,13.08-9.93,19.21-19.78,20.31-21.65l2.61-4.45v-5.16c0-74.79-32.62-134.78-34-137.29l-2-3.58-3.26-2.44C326,134,293.38,132.69,287.19,132.69Zm3.93,130.76c-1.36,0-3.42-2.16-3.42-5.4,0-3.08,1.81-5.39,3.42-5.39s3.41,2.31,3.41,5.39-1.8,5.4-3.41,5.4Zm-80.21,0c-1.36,0-3.42-2.16-3.42-5.4,0-3.08,1.81-5.39,3.42-5.39a2.68,2.68,0,0,1,1.9.92,5.76,5.76,0,0,1,1.52,4.16v.31c0,3.09-1.8,5.4-3.41,5.4Z"/></g></g></svg>