<svg xmlns="http://www.w3.org/2000/svg" viewBox="0 0 500 500"><defs><style>.cls-1{isolation:isolate;}.cls-2{opacity:0.3;mix-blend-mode:multiply;}.cls-3{fill:#e5e3da;}.cls-4{fill:#1f42b2;}.cls-5{fill:none;stroke:#fff;stroke-miterlimit:10;stroke-width:1.5px;}.cls-6{fill:#fff;}</style></defs><g class="cls-1"><g id="Vrstva_1" data-name="Vrstva 1"><g class="cls-2"><polygon points="25.47 38.64 72.61 46.89 135.99 38.64 224.15 46.89 333.61 42.76 381.28 47.44 463.31 38.64 481.15 38.64 481.15 108.73 478.49 126.53 481.15 120.07 479.82 253.03 479.82 316.94 482.92 454.02 479.29 454.02 477.15 465.36 446.26 459.17 451.85 465.36 403.12 465.36 350.12 455.05 261.7 454.02 257.7 446.81 257.44 454.54 177.27 461.24 99.64 450.93 76.07 455.57 29.46 465.36 21.08 465.36 24.67 455.05 21.08 456.6 24 362.29 24 196.86 22.54 83.99 25.34 85.02 22.81 68.98 25.47 38.64"/></g><polygon class="cls-3" points="23.47 36.64 70.61 44.89 133.99 36.64 222.15 44.89 331.61 40.76 379.28 45.44 461.31 36.64 479.15 36.64 479.15 106.73 476.49 124.53 479.15 118.07 477.82 251.03 477.82 314.94 480.92 452.02 477.29 452.02 475.15 463.36 444.26 457.17 449.85 463.36 401.12 463.36 348.12 453.05 259.7 452.02 255.7 444.81 255.44 452.54 175.27 459.24 97.64 448.93 74.07 453.57 27.46 463.36 19.08 463.36 22.67 453.05 19.08 454.6 22 360.29 22 194.86 20.54 81.99 23.34 83.02 20.81 66.98 23.47 36.64"/><rect class="cls-4" x="41.06" y="51.28" width="421.48" height="388.72"/><rect class="cls-5" x="59.01" y="66.98" width="385.14" height="357.32"/><rect class="cls-6" x="158.79" y="79.59" width="1.23" height="327.77"/><rect class="cls-6" x="334.55" y="79.59" width="1.23" height="327.77"/><rect class="cls-6" x="77.26" y="123.82" width="346.98" height="1.41"/><rect class="cls-6" x="77.26" y="244.93" width="346.98" height="1.41"/><rect class="cls-6" x="77.26" y="366.04" width="346.98" height="1.41"/><path class="cls-6" d="M243.29,373.56c-30.73,0-59.74-8.84-81.71-24.91-22.88-16.73-35.48-39.25-35.48-63.4a75.11,75.11,0,0,1,.44-8.19,36.54,36.54,0,0,1-13.38-38,36,36,0,0,1,35.5-28.12A36.71,36.71,0,0,1,169,217.09c17.53-10.69,38.87-17.46,61.37-19.47l14.09-64.69.05-.19a14.4,14.4,0,0,1,13.76-10.93,13.47,13.47,0,0,1,3.29.4L305,132a29.52,29.52,0,0,1,22.25-10.25,30.13,30.13,0,0,1,0,60.26,29.67,29.67,0,0,1-28.54-22.07l-29.45-6.7L259.49,198c21.29,2.24,41.36,8.79,58,19a36.76,36.76,0,0,1,42.7,59.73,66.48,66.48,0,0,1,.55,8.6c0,24.17-12.62,46.68-35.52,63.41C303.21,364.72,274.11,373.56,243.29,373.56ZM287.6,264.09c-5.82,0-10.56,5-10.56,11.14a10.72,10.72,0,0,0,10.56,10.85,11,11,0,0,0,0-22Zm-89-.06a11,11,0,1,0,10.58,11.14C209.2,269,204.45,264,198.62,264Z"/><path class="cls-4" d="M327.28,131.24a20.63,20.63,0,0,1,0,41.26,20.27,20.27,0,0,1-20.07-20.38L262,141.84l-14.18,64.84c27.3.88,51.94,9.14,70.21,22a27.12,27.12,0,0,1,19.4-8.26c28.31,0,37.72,38.5,12.18,51.8a50.6,50.6,0,0,1,1.58,13.05c0,43.54-48.34,78.81-107.94,78.81-59.35,0-107.69-35.27-107.69-78.81a59.08,59.08,0,0,1,1.33-12.84c-26.06-13.25-16.74-52,11.73-52a27.07,27.07,0,0,1,19.66,8.47c18.33-12.84,42.7-21.09,69.79-22.24l15.57-71.49a5,5,0,0,1,4.57-3.83,4,4,0,0,1,1.07.14l49.88,11.22a20.6,20.6,0,0,1,18.08-11.43M198.53,295.54h.09a20.28,20.28,0,1,0-.09,0m89.07,0a20.5,20.5,0,0,0,0-41c-11.05,0-20.06,9.21-20.06,20.64a20.24,20.24,0,0,0,20.06,20.35M243,327.82c-15.5,0-31-3.77-38.11-11.2a4.85,4.85,0,0,0-6.76,0,4.86,4.86,0,0,0,0,7.11c9.32,9.46,27.13,14.19,44.94,14.19s35.61-4.73,44.93-14.19a4.85,4.85,0,0,0,0-7.11,4.85,4.85,0,0,0-6.76,0c-7.4,7.5-22.81,11.2-38.19,11.2m84.26-215.58a38.76,38.76,0,0,0-25.21,9.35L263.72,113a23.45,23.45,0,0,0-5.47-.65,23.9,23.9,0,0,0-22.95,18l-.1.38-.08.39-12.6,57.83a153,153,0,0,0-53.58,17.2,46.17,46.17,0,0,0-20.28-4.73c-21.69,0-39.67,14.23-44.74,35.4a45.87,45.87,0,0,0,12.78,44.34c-.07,1.35-.1,2.72-.1,4.11a79.43,79.43,0,0,0,11,40.2A101.55,101.55,0,0,0,156,356.32c23.58,17.25,54.59,26.74,87.32,26.74s63.91-9.49,87.52-26.73a101.2,101.2,0,0,0,28.37-30.88,79.3,79.3,0,0,0,11.05-40.2c0-1.59-.05-3.15-.14-4.68a45.85,45.85,0,0,0,12.09-43.91c-5.16-21.07-23.12-35.25-44.7-35.26A45.61,45.61,0,0,0,317.54,206,148.62,148.62,0,0,0,271,190l5.54-25.34,15,3.42a39.09,39.09,0,0,0,35.73,23.46,39.63,39.63,0,0,0,0-79.26ZM198.52,276.54h0a1.33,1.33,0,0,1-1.23-1.38c0-.78.41-1.63,1.32-1.63.45,0,1.08.57,1.08,1.63a1.3,1.3,0,0,1-1.08,1.38h-.1Zm89.08,0a1.27,1.27,0,0,1-1.06-1.35c0-1,.62-1.64,1.06-1.64.77,0,1.31.65,1.33,1.59a1.41,1.41,0,0,1-1.33,1.4Z"/></g></g></svg>