<svg xmlns="http://www.w3.org/2000/svg" xmlns:xlink="http://www.w3.org/1999/xlink" viewBox="0 0 500 500"><defs><style>.cls-1,.cls-6{fill:none;}.cls-2{isolation:isolate;}.cls-3{opacity:0.3;mix-blend-mode:multiply;}.cls-4{fill:#e5e3da;}.cls-5{fill:#1f42b2;}.cls-6{stroke:#fff;stroke-miterlimit:10;stroke-width:1.5px;}.cls-7{fill:#fff;}.cls-8{clip-path:url(#clip-path);}</style><clipPath id="clip-path"><path class="cls-1" d="M381.63,136c68.08,78.34,41.71,199.57-17.19,245.16-30,23.25-66.47,25.22-118.27,28-57,3.09-103.27,5.59-134.81-19.91C51,340.45,45.3,189.75,136.47,118.84,205.18,65.4,317.85,62.58,381.63,136Z"/></clipPath></defs><g class="cls-2"><g id="Vrstva_1" data-name="Vrstva 1"><g class="cls-3"><polygon points="25.47 38.64 72.61 46.89 135.99 38.64 224.15 46.89 333.61 42.76 381.28 47.44 463.31 38.64 481.15 38.64 481.15 108.73 478.49 126.53 481.15 120.07 479.82 253.03 479.82 316.94 482.92 454.02 479.29 454.02 477.15 465.36 446.26 459.17 451.85 465.36 403.12 465.36 350.12 455.05 261.7 454.02 257.7 446.81 257.44 454.54 177.27 461.24 99.64 450.93 76.07 455.57 29.46 465.36 21.08 465.36 24.67 455.05 21.08 456.6 24 362.29 24 196.86 22.54 83.99 25.34 85.02 22.81 68.98 25.47 38.64"/></g><polygon class="cls-4" points="23.47 36.64 70.61 44.89 133.99 36.64 222.15 44.89 331.61 40.76 379.28 45.44 461.31 36.64 479.15 36.64 479.15 106.73 476.49 124.53 479.15 118.07 477.82 251.03 477.82 314.94 480.92 452.02 477.29 452.02 475.15 463.36 444.26 457.17 449.85 463.36 401.12 463.36 348.12 453.05 259.7 452.02 255.7 444.81 255.44 452.54 175.27 459.24 97.64 448.93 74.07 453.57 27.46 463.36 19.08 463.36 22.67 453.05 19.08 454.6 22 360.29 22 194.86 20.54 81.99 23.34 83.02 20.81 66.98 23.47 36.64"/><rect class="cls-5" x="41.06" y="51.28" width="421.48" height="388.72"/><rect class="cls-6" x="59.01" y="66.98" width="385.14" height="357.32"/><rect class="cls-7" x="158.79" y="79.59" width="1.23" height="327.77"/><rect class="cls-7" x="334.55" y="79.59" width="1.23" height="327.77"/><rect class="cls-7" x="77.26" y="123.82" width="346.98" height="1.41"/><rect class="cls-7" x="77.26" y="244.93" width="346.98" height="1.41"/><rect class="cls-7" x="77.26" y="366.04" width="346.98" height="1.41"/><g class="cls-8"><polygon class="cls-7" points="207.13 167.78 221.67 148.08 201.96 133.53 221.61 106.91 241.32 121.45 255.85 101.74 282.48 121.38 267.94 141.1 287.65 155.64 268.01 182.26 248.3 167.72 233.75 187.44 207.13 167.78"/><path class="cls-5" d="M257.86,115l11.34,8.36L254.66,143.1l19.7,14.54L266,169l-19.7-14.54-14.55,19.72-11.34-8.37L235,146.07l-19.7-14.54,8.36-11.34,19.71,14.54L257.86,115m-4-26.57-11.28,15.29-3.26,4.41-4.42-3.25L219.61,93.63l-11.28,15.28L200,120.25l-11.29,15.29L204,146.82l4.42,3.26-3.26,4.42-11.27,15.28,15.28,11.28,11.33,8.37,15.29,11.29L247,185.43,250.3,181l4.42,3.26L270,195.54l11.28-15.29,8.36-11.32,11.29-15.29-15.3-11.29-4.42-3.26,3.27-4.42,11.28-15.29-15.3-11.28-11.33-8.36L253.85,88.46Z"/><path class="cls-7" d="M145.09,442.93a15.16,15.16,0,0,1-14.82-15.49c.08-3.69.29-7.22.63-10.78A15.09,15.09,0,0,1,146,402.93a13.45,13.45,0,0,1,1.41.07,15.16,15.16,0,0,1,13.68,16.53c-.27,2.83-.43,5.64-.49,8.58a15.25,15.25,0,0,1-15.16,14.83Z"/><path class="cls-5" d="M146,412.43a4.58,4.58,0,0,1,.53,0,5.64,5.64,0,0,1,5.1,6.17c-.29,3.05-.46,6.08-.53,9.27a5.67,5.67,0,0,1-5.66,5.54h-.12a5.66,5.66,0,0,1-5.54-5.79c.08-3.46.27-6.76.58-10.09a5.67,5.67,0,0,1,5.64-5.13m0-19h0a24.56,24.56,0,0,0-24.55,22.33c-.36,3.79-.58,7.55-.66,11.48a24.66,24.66,0,0,0,24.11,25.19h.54a24.67,24.67,0,0,0,24.66-24.13c0-2.71.2-5.29.45-7.89a24.66,24.66,0,0,0-22.22-26.88c-.81-.07-1.57-.11-2.33-.11Z"/><path class="cls-7" d="M151.35,407.85a15.27,15.27,0,0,1-5-.85A15.15,15.15,0,0,1,137,387.69a90.51,90.51,0,0,1,10.4-21A15.16,15.16,0,0,1,160,360.09a15,15,0,0,1,3.95.52,15.19,15.19,0,0,1,7.39-16.19A76.88,76.88,0,0,1,194,336.24a15.68,15.68,0,0,1,3.13-.32,15.19,15.19,0,0,1,11.82,5.7,15.39,15.39,0,0,1,2.42-3.87,15.1,15.1,0,0,1,10.35-5.26c6.13-.48,12.29-.72,18.29-.72l2.55,0a15.16,15.16,0,0,1,13.36,8.31,15.15,15.15,0,0,1,12.39-6.46,16.13,16.13,0,0,1,2,.13c6.83.88,12.82,1.9,18.61,2.88l1.26.21a15.06,15.06,0,0,1,9.82,6.17,14.72,14.72,0,0,1,1.39,2.39c.35-.45.72-.89,1.11-1.3a15.05,15.05,0,0,1,10.62-4.68,33.57,33.57,0,0,0,13.24-2.81,15.12,15.12,0,0,1,11.6-.22,2.45,2.45,0,0,1,0-.27,15,15,0,0,1,3.66-11,68.59,68.59,0,0,0,8.79-13.26,15.12,15.12,0,0,1,11-8,14.58,14.58,0,0,1-1.34-2.09,15.06,15.06,0,0,1-1.14-11.54c1.42-4.68,2.6-9.17,3.65-13.13.41-1.55.84-3.21,1.29-5A15.17,15.17,0,0,1,373,261.67a15.4,15.4,0,0,1-1.61-1.62,15.06,15.06,0,0,1-3.59-11c.2-2.62.31-5.24.31-7.79a88.22,88.22,0,0,0-.45-9A15.11,15.11,0,0,1,372,220a15.09,15.09,0,0,1-9.51-8.82,76.62,76.62,0,0,0-4.57-9.44c-1-1.68-2-3.34-3.06-4.92a15.15,15.15,0,0,1-2-12.87,15,15,0,0,1-2.85.27,15.17,15.17,0,0,1-9.78-3.58,89.54,89.54,0,0,0-13.7-9.5,15.16,15.16,0,0,1,15-26.38,121.31,121.31,0,0,1,18.32,12.72,15.06,15.06,0,0,1,5.32,10.31,15.31,15.31,0,0,1-.58,5.65,14.83,14.83,0,0,1,2.83-.27A15.14,15.14,0,0,1,380,179.82c1.5,2.22,2.93,4.52,4.27,6.86a108,108,0,0,1,6.38,13.18,15.18,15.18,0,0,1-3.36,16.38,15.12,15.12,0,0,1,10.52,12.93,119.59,119.59,0,0,1,.6,12.05c0,3.33-.14,6.75-.41,10.16a15.25,15.25,0,0,1-9.64,12.95,15.18,15.18,0,0,1,4.81,15.18c-.48,1.91-.95,3.68-1.37,5.29l0,.1c-1.1,4.21-2.36,9-3.94,14.16a15.06,15.06,0,0,1-12,10.55,15.22,15.22,0,0,1,1.43,16.2A98.38,98.38,0,0,1,364.46,345,15.15,15.15,0,0,1,353,350.21a15.31,15.31,0,0,1-5.54-1,15.17,15.17,0,0,1-9,15.25,64.37,64.37,0,0,1-24.67,5.33h-.35A15.27,15.27,0,0,1,299.67,361a15.1,15.1,0,0,1-12.08,6,15.42,15.42,0,0,1-2.53-.21l-1.28-.22c-5.55-.94-11.22-1.9-17.41-2.7a15.19,15.19,0,0,1-11.6-8.21,15.2,15.2,0,0,1-12.42,6.48h-.1l-2.25,0c-5.22,0-10.58.21-15.95.63-.39,0-.79,0-1.18,0A15.18,15.18,0,0,1,211,357.05a15.19,15.19,0,0,1-10.82,8.86,47.18,47.18,0,0,0-13.94,4.89,15.17,15.17,0,0,1-11.45,1.44,15.06,15.06,0,0,1-2.31,11.53,60.2,60.2,0,0,0-6.86,13.92A15.16,15.16,0,0,1,151.35,407.85Z"/><path class="cls-5" d="M334.07,152.27a5.62,5.62,0,0,1,2.78.74,109.84,109.84,0,0,1,16.88,11.71,5.66,5.66,0,0,1-7.31,8.65,98.48,98.48,0,0,0-15.15-10.51,5.66,5.66,0,0,1,2.8-10.59m33.36,30.38a5.66,5.66,0,0,1,4.7,2.49c1.36,2,2.67,4.13,3.89,6.25a98.25,98.25,0,0,1,5.81,12,5.66,5.66,0,0,1-10.51,4.22A84.86,84.86,0,0,0,366.19,197c-1.08-1.88-2.23-3.74-3.44-5.53a5.66,5.66,0,0,1,1.52-7.86,5.59,5.59,0,0,1,3.16-1m15.29,42.4a5.66,5.66,0,0,1,5.63,5.08,109.5,109.5,0,0,1,.56,11.09c0,3.09-.13,6.25-.38,9.42a5.65,5.65,0,0,1-5.63,5.22l-.45,0a5.65,5.65,0,0,1-5.2-6.08c.22-2.88.34-5.75.34-8.54a98.44,98.44,0,0,0-.5-9.94,5.66,5.66,0,0,1,5.06-6.2,5.44,5.44,0,0,1,.57,0m-4.26,45.1a6.07,6.07,0,0,1,1.39.17,5.65,5.65,0,0,1,4.1,6.87q-.7,2.82-1.34,5.19c-1.1,4.18-2.33,8.87-3.87,13.92a5.65,5.65,0,0,1-5.41,4,5.88,5.88,0,0,1-1.65-.24,5.66,5.66,0,0,1-3.77-7.06c1.47-4.85,2.68-9.43,3.74-13.48q.63-2.36,1.33-5.1a5.64,5.64,0,0,1,5.48-4.28m-14.66,43a5.65,5.65,0,0,1,5,8.26,89.06,89.06,0,0,1-11.54,17.32,5.66,5.66,0,0,1-8.56-7.41,78.12,78.12,0,0,0,10-15.11,5.64,5.64,0,0,1,5-3.06M240,341.27h2.44a5.67,5.67,0,0,1-.08,11.33h0l-2.3,0c-5.44,0-11.09.22-16.7.66l-.44,0a5.66,5.66,0,0,1-.44-11.31c5.9-.46,11.8-.69,17.56-.69m28.3,1.87a6.27,6.27,0,0,1,.74.05c6.63.85,12.53,1.85,18.24,2.82l1.26.22a5.66,5.66,0,0,1-.94,11.24,6.09,6.09,0,0,1-.95-.08l-1.27-.21c-5.59-.95-11.38-1.94-17.79-2.76a5.66,5.66,0,0,1,.71-11.28m64.07,1.72a5.67,5.67,0,0,1,2.26,10.86,54.94,54.94,0,0,1-21.08,4.53h-.14a5.66,5.66,0,0,1-.12-11.32,43.22,43.22,0,0,0,16.82-3.59,5.67,5.67,0,0,1,2.26-.48m-135.25.56a5.66,5.66,0,0,1,1.16,11.2,55.76,55.76,0,0,0-16.68,5.92,5.66,5.66,0,0,1-5.58-9.85,67.57,67.57,0,0,1,19.92-7.15,6,6,0,0,1,1.18-.12M160,369.59a5.56,5.56,0,0,1,3.17,1,5.66,5.66,0,0,1,1.51,7.86,69.73,69.73,0,0,0-8,16.13,5.65,5.65,0,0,1-5.34,3.79,5.57,5.57,0,0,1-1.87-.32,5.66,5.66,0,0,1-3.47-7.21,80.39,80.39,0,0,1,9.29-18.75,5.67,5.67,0,0,1,4.69-2.48M334.07,133.27h0a24.66,24.66,0,0,0-12.16,46.12,80.39,80.39,0,0,1,12.25,8.49,24.81,24.81,0,0,0,9,4.83,24.6,24.6,0,0,0,3.85,9.41c.94,1.39,1.84,2.84,2.68,4.32a66.76,66.76,0,0,1,4,8.26,25,25,0,0,0,5.56,8.39,24.74,24.74,0,0,0-1.06,10.11c.26,2.6.4,5.3.4,8,0,2.29-.1,4.67-.28,7.06a24.54,24.54,0,0,0,1.7,11.16,24.62,24.62,0,0,0-5.46,10.36c-.44,1.76-.87,3.39-1.27,4.9-1,3.87-2.17,8.27-3.55,12.78a24.59,24.59,0,0,0-.68,11.57,24.8,24.8,0,0,0-7.16,8.45,58.89,58.89,0,0,1-7.54,11.42,24.79,24.79,0,0,0-4.29,7.05,24.32,24.32,0,0,0-7.55,1.95,24.28,24.28,0,0,1-9.67,2,24.65,24.65,0,0,0-10.1,2.4,24.66,24.66,0,0,0-11-4.85l-1.26-.21c-5.88-1-12-2-19-2.93a23.51,23.51,0,0,0-3.16-.21h0A24.58,24.58,0,0,0,256.83,327a24.46,24.46,0,0,0-14.19-4.69l-2.65,0h0c-6.25,0-12.66.25-19,.75a24.39,24.39,0,0,0-13.79,5.57,24.4,24.4,0,0,0-10.06-2.17A24.85,24.85,0,0,0,192,327a86.06,86.06,0,0,0-25.37,9.2A24.64,24.64,0,0,0,155,351.09a24.58,24.58,0,0,0-15.44,10.3,99.79,99.79,0,0,0-11.52,23.16,24.66,24.66,0,1,0,46.56,16.27,50.69,50.69,0,0,1,5.75-11.71,24.63,24.63,0,0,0,3.39-7.34,24.93,24.93,0,0,0,7.19-2.7,37.67,37.67,0,0,1,11.22-3.86,24.55,24.55,0,0,0,10.63-5.11,24.45,24.45,0,0,0,10.06,2.17c.64,0,1.29,0,1.94-.08,5.1-.4,10.23-.6,15.2-.6h2.34a24.48,24.48,0,0,0,11.45-2.84,24.58,24.58,0,0,0,11.36,4.49c6,.78,11.62,1.73,17,2.65l1.27.21a24.75,24.75,0,0,0,14.8-2.06,24.56,24.56,0,0,0,15.14,5.19H314a73.82,73.82,0,0,0,28.25-6.12,24.65,24.65,0,0,0,13.06-13.52,24.68,24.68,0,0,0,16.37-8.42,107.88,107.88,0,0,0,14-21,24.47,24.47,0,0,0,2.38-15.71,24.59,24.59,0,0,0,8.85-12.65c1.64-5.37,2.92-10.25,4.06-14.56h0v-.06c.43-1.63.9-3.43,1.39-5.37a24.53,24.53,0,0,0-1.07-15.29,24.59,24.59,0,0,0,6.17-14.42c.28-3.65.43-7.31.43-10.89a129.87,129.87,0,0,0-.65-13,24.65,24.65,0,0,0-7.22-15.1,24.44,24.44,0,0,0-.58-16.79A115,115,0,0,0,392.51,182c-1.44-2.52-3-5-4.64-7.46a24.65,24.65,0,0,0-13.53-9.87A24.46,24.46,0,0,0,366,150.2a129.86,129.86,0,0,0-19.76-13.73,24.78,24.78,0,0,0-12.15-3.2Z"/><path class="cls-7" d="M310.1,162.88a15.07,15.07,0,0,1-4.37-.65c-2.75-.82-5.45-1.51-8-2a15.16,15.16,0,1,1,6-29.72c3.51.71,7.14,1.62,10.77,2.72a15.15,15.15,0,0,1,10.15,18.88A15.26,15.26,0,0,1,310.1,162.88Z"/><path class="cls-5" d="M300.68,139.68a5.41,5.41,0,0,1,1.13.11c3.22.65,6.55,1.49,9.91,2.5a5.67,5.67,0,0,1-1.62,11.09,5.54,5.54,0,0,1-1.64-.25c-3-.91-6-1.66-8.89-2.24a5.66,5.66,0,0,1,1.11-11.21m0-19h0a24.66,24.66,0,0,0-4.87,48.83c2.3.47,4.72,1.08,7.18,1.82a24.83,24.83,0,0,0,7.11,1,24.66,24.66,0,0,0,7.1-48.28c-3.92-1.18-7.83-2.17-11.63-2.93a24.26,24.26,0,0,0-4.88-.49Z"/></g></g></g></svg>