<svg xmlns="http://www.w3.org/2000/svg" viewBox="0 0 500 500"><defs><style>.cls-1{isolation:isolate;}.cls-2{fill:#c4c4c4;}.cls-3{opacity:0.3;mix-blend-mode:multiply;}.cls-4{fill:#e5e3da;}.cls-5{fill:#1f42b2;}.cls-6{fill:#fff;}</style></defs><g class="cls-1"><g id="Inovators"><rect class="cls-2" x="26.49" y="269.43" width="453.96" height="115.52"/><g class="cls-3"><polygon points="38.45 277.43 83.64 279.47 144.4 277.43 228.91 279.47 333.85 278.45 379.55 279.6 458.19 277.43 475.3 277.43 475.3 294.79 472.75 299.2 475.3 297.6 474.02 330.53 474.02 346.36 477 380.32 473.51 380.32 471.47 383.13 441.85 381.6 447.21 383.13 400.49 383.13 349.68 380.57 264.92 380.32 261.08 378.53 260.83 380.45 183.98 382.11 109.55 379.55 86.96 380.7 42.28 383.13 34.23 383.13 37.68 380.57 34.23 380.96 37.04 357.6 37.04 316.62 35.64 288.66 38.32 288.92 35.89 284.94 38.45 277.43"/></g><polygon class="cls-4" points="36.45 275.43 81.64 277.47 142.4 275.43 226.91 277.47 331.85 276.45 377.55 277.6 456.19 275.43 473.3 275.43 473.3 292.79 470.75 297.2 473.3 295.6 472.02 328.53 472.02 344.36 475 378.32 471.51 378.32 469.47 381.13 439.85 379.6 445.21 381.13 398.49 381.13 347.68 378.57 262.92 378.32 259.08 376.53 258.83 378.45 181.98 380.11 107.55 377.55 84.96 378.7 40.28 381.13 32.23 381.13 35.68 378.57 32.23 378.96 35.04 355.6 35.04 314.62 33.64 286.66 36.32 286.92 33.89 282.94 36.45 275.43"/><rect class="cls-5" x="38.49" y="279.05" width="429.96" height="96.29"/><path class="cls-6" d="M57.32,306.85h5.94v39H57.32Z"/><path class="cls-6" d="M98.6,329.61v-23h5.94v41L86.43,323.11v22.78H80.49V305.05Z"/><path class="cls-6" d="M139.89,329.61v-23h5.94v41l-18.12-24.51v22.78h-5.94V305.05Z"/><path class="cls-6" d="M203.18,326.27a18.74,18.74,0,0,1-1.58,7.65,19.65,19.65,0,0,1-4.31,6.22,20.6,20.6,0,0,1-6.36,4.2,20.45,20.45,0,0,1-15.62,0,20.53,20.53,0,0,1-6.37-4.2,19.65,19.65,0,0,1-4.31-6.22,18.74,18.74,0,0,1-1.58-7.65,19,19,0,0,1,1.58-7.68,19.54,19.54,0,0,1,4.31-6.27,20.33,20.33,0,0,1,6.37-4.19,20.57,20.57,0,0,1,15.62,0,20.39,20.39,0,0,1,6.36,4.19,19.54,19.54,0,0,1,4.31,6.27A19,19,0,0,1,203.18,326.27Zm-33.71,0a13.29,13.29,0,0,0,1.06,5.31,13.77,13.77,0,0,0,17.9,7.22A13.67,13.67,0,0,0,195.67,321a13.51,13.51,0,0,0-2.9-4.32,13.17,13.17,0,0,0-4.34-2.88,14.23,14.23,0,0,0-10.63,0,13.43,13.43,0,0,0-4.35,2.88,13.57,13.57,0,0,0-2.92,4.32A13.33,13.33,0,0,0,169.47,326.27Z"/><path class="cls-6" d="M246.53,306.64l-15.73,41-15.75-41h6.36L230.8,331l9.36-24.4Z"/><path class="cls-6" d="M258,340.62,255.88,346h-6.37l15.76-40.95L281,346h-6.36l-2.07-5.41Zm2.29-5.95h10l-5-13Z"/><path class="cls-6" d="M289,306.64h25.46v6.15h-9.76v32.89h-5.94V312.79H289Z"/><path class="cls-6" d="M366.92,326.27a18.74,18.74,0,0,1-1.57,7.65,19.82,19.82,0,0,1-4.31,6.22,20.64,20.64,0,0,1-6.37,4.2,20.45,20.45,0,0,1-15.62,0,20.6,20.6,0,0,1-6.36-4.2,19.65,19.65,0,0,1-4.31-6.22,18.74,18.74,0,0,1-1.58-7.65,19,19,0,0,1,1.58-7.68,19.54,19.54,0,0,1,4.31-6.27,20.39,20.39,0,0,1,6.36-4.19,20.57,20.57,0,0,1,15.62,0,20.44,20.44,0,0,1,6.37,4.19,19.7,19.7,0,0,1,4.31,6.27A19,19,0,0,1,366.92,326.27Zm-33.7,0a13.29,13.29,0,0,0,1.06,5.31,13.47,13.47,0,0,0,7.26,7.22,14,14,0,0,0,10.64,0,13.46,13.46,0,0,0,4.34-2.89,13.78,13.78,0,0,0,2.9-4.33,13.86,13.86,0,0,0,0-10.63,13.85,13.85,0,0,0-2.9-4.32,13.28,13.28,0,0,0-4.34-2.88,14.25,14.25,0,0,0-10.64,0,13.28,13.28,0,0,0-4.34,2.88,13.57,13.57,0,0,0-2.92,4.32A13.33,13.33,0,0,0,333.22,326.27Z"/><path class="cls-6" d="M400.07,334.28,405.63,346h-6.36l-4.22-9.05a15.37,15.37,0,0,1-4.51.64h-.45v8.35h-5.94v-39.3h6.39a15.47,15.47,0,0,1,11,26.41A17,17,0,0,1,400.07,334.28Zm-10-2.63h.45a9.6,9.6,0,1,0,0-19.2h-.45Z"/><path class="cls-6" d="M431.93,346a14.61,14.61,0,0,1-4.49-.64,15.48,15.48,0,0,1-4.18-2.28v-7.29a16,16,0,0,0,2.12,2,18.86,18.86,0,0,0,1.82,1.1,12.65,12.65,0,0,0,2.37,1,8.65,8.65,0,0,0,2.57.4,5.6,5.6,0,0,0,4.31-1.82,6.08,6.08,0,0,0,1.69-4.31,4.23,4.23,0,0,0-1.43-3.31,23.14,23.14,0,0,0-4.7-2.92c-1.31-.67-2.41-1.28-3.31-1.83a14.73,14.73,0,0,1-2.6-2,9.73,9.73,0,0,1-2-2.9,9.56,9.56,0,0,1-.77-4,10.15,10.15,0,0,1,1.09-4.15,11.18,11.18,0,0,1,2.65-3.37,12.55,12.55,0,0,1,3.81-2.24,12.74,12.74,0,0,1,4.49-.79,12.38,12.38,0,0,1,3.24.49,14.23,14.23,0,0,1,3.31,1.57v6.13a11.59,11.59,0,0,0-1.52-.91c-.27-.12-.66-.31-1.17-.59a8.86,8.86,0,0,0-1.75-.7,7.58,7.58,0,0,0-2.11-.29,6.15,6.15,0,0,0-4.21,1.58,4.7,4.7,0,0,0-1.73,3.59,4,4,0,0,0,1.45,3.09,21.52,21.52,0,0,0,4.49,2.58c1.42.68,2.57,1.27,3.46,1.78a14.28,14.28,0,0,1,2.64,2,8.94,8.94,0,0,1,2.1,3.08,11.84,11.84,0,0,1,.85,4.4,10.42,10.42,0,0,1-1,4.44,11.89,11.89,0,0,1-2.74,3.73,12.93,12.93,0,0,1-4,2.53A12.54,12.54,0,0,1,431.93,346Z"/><path class="cls-6" d="M463.72,371.83H43.22V282.57h420.5ZM44,371.08H463V283.32H44Z"/><rect class="cls-6" x="74.83" y="286.06" width="0.35" height="81.19"/><rect class="cls-6" x="124.83" y="286.06" width="0.35" height="81.19"/><rect class="cls-6" x="174.83" y="286.06" width="0.35" height="81.19"/><rect class="cls-6" x="224.83" y="286.06" width="0.35" height="81.19"/><rect class="cls-6" x="274.83" y="286.06" width="0.35" height="81.19"/><rect class="cls-6" x="324.83" y="286.06" width="0.35" height="81.19"/><rect class="cls-6" x="374.83" y="286.06" width="0.35" height="81.19"/><rect class="cls-6" x="424.83" y="286.06" width="0.35" height="81.19"/><rect class="cls-6" x="48.79" y="297.02" width="405.79" height="0.35"/><rect class="cls-6" x="48.79" y="327.02" width="405.79" height="0.35"/><rect class="cls-6" x="48.79" y="357.02" width="405.79" height="0.35"/></g><g id="DELTA_CRAFT" data-name="DELTA CRAFT"><path d="M115.91,253.73a9.92,9.92,0,0,1-5.35-1.49,11.35,11.35,0,0,1-3.86-4,10.66,10.66,0,0,1-1.44-5.46v-2.5c0-.18.09-.27.28-.27h6.08c.14,0,.22.09.22.27v2.5a4.34,4.34,0,0,0,1.19,3.07,3.81,3.81,0,0,0,2.88,1.27,3.77,3.77,0,0,0,2.88-1.3,4.38,4.38,0,0,0,1.19-3q0-2-2.6-3.48l-2.72-1.52-3.48-2a11.32,11.32,0,0,1-4.42-4.37,12.18,12.18,0,0,1-1.44-6,10.37,10.37,0,0,1,1.46-5.45,11,11,0,0,1,3.89-3.83,10.49,10.49,0,0,1,10.54,0,11,11,0,0,1,3.85,3.86,10.34,10.34,0,0,1,1.44,5.4V230a.2.2,0,0,1-.22.22H120.2A.2.2,0,0,1,120,230l0-4.46a4.18,4.18,0,0,0-1.2-3.09,3.9,3.9,0,0,0-5.7.08,4.25,4.25,0,0,0-1.19,3,5.42,5.42,0,0,0,.76,3,7.21,7.21,0,0,0,2.77,2.28c.18.11.53.3,1.06.57s1.09.58,1.71.93,1.16.64,1.65.89.79.42.9.49a13.08,13.08,0,0,1,4.29,3.72,9.06,9.06,0,0,1,1.57,5.41,10.91,10.91,0,0,1-1.43,5.56,10.8,10.8,0,0,1-3.86,3.91A10.27,10.27,0,0,1,115.91,253.73Z"/><path d="M141.44,253.19c-.15,0-.22-.09-.22-.27l.05-37.31a.2.2,0,0,1,.22-.22h17.44q.21,0,.21.27v6.08c0,.15-.07.22-.21.22H147.79v8.47h11.14a.19.19,0,0,1,.21.22l.06,6.14a.19.19,0,0,1-.22.21H147.79v9.51H159c.14,0,.22.09.22.27V253a.2.2,0,0,1-.22.22Z"/><path d="M172.5,252.92l6.74-37.31a.25.25,0,0,1,.27-.22h7.88a.26.26,0,0,1,.27.22l6.46,37.31c0,.18,0,.27-.22.27h-6q-.21,0-.27-.27l-.59-4h-7.39l-.6,4q-.06.27-.27.27h-6C172.58,253.19,172.5,253.1,172.5,252.92Zm8.21-9.78h5.21l-2.23-15.26-.32-2-.22,2Z"/><path d="M216.55,253.73a10,10,0,0,1-5.35-1.49,11.23,11.23,0,0,1-3.85-4,10.66,10.66,0,0,1-1.44-5.46v-2.5a.24.24,0,0,1,.27-.27h6.08c.15,0,.22.09.22.27v2.5a4.38,4.38,0,0,0,1.19,3.07,3.81,3.81,0,0,0,2.88,1.27,3.77,3.77,0,0,0,2.88-1.3,4.35,4.35,0,0,0,1.2-3q0-2-2.61-3.48l-2.72-1.52-3.47-2a11.29,11.29,0,0,1-4.43-4.37,12.18,12.18,0,0,1-1.44-6,10.28,10.28,0,0,1,1.47-5.45,10.87,10.87,0,0,1,3.88-3.83,10.49,10.49,0,0,1,10.54,0,11,11,0,0,1,3.85,3.86,10.34,10.34,0,0,1,1.44,5.4V230a.19.19,0,0,1-.21.22h-6.09a.19.19,0,0,1-.21-.22l-.06-4.46a4.21,4.21,0,0,0-1.19-3.09,3.87,3.87,0,0,0-2.83-1.2,3.82,3.82,0,0,0-2.88,1.28,4.29,4.29,0,0,0-1.19,3,5.42,5.42,0,0,0,.76,3,7.28,7.28,0,0,0,2.77,2.28c.18.11.53.3,1.06.57s1.09.58,1.71.93,1.17.64,1.66.89l.89.49a13.08,13.08,0,0,1,4.29,3.72,9.06,9.06,0,0,1,1.58,5.41,10.82,10.82,0,0,1-5.3,9.47A10.24,10.24,0,0,1,216.55,253.73Z"/><path d="M251.91,253.73a9.92,9.92,0,0,1-5.35-1.49,11.49,11.49,0,0,1-3.88-4,10.49,10.49,0,0,1-1.47-5.46l0-17.22a10.5,10.5,0,0,1,1.44-5.43,11,11,0,0,1,3.89-3.91,10.13,10.13,0,0,1,5.32-1.47,9.93,9.93,0,0,1,5.32,1.47,11.12,11.12,0,0,1,3.83,3.91,10.5,10.5,0,0,1,1.44,5.43l.05,17.22a10.75,10.75,0,0,1-1.43,5.46,11.35,11.35,0,0,1-3.86,4A9.92,9.92,0,0,1,251.91,253.73Zm0-6.57a3.74,3.74,0,0,0,2.85-1.33,4.31,4.31,0,0,0,1.22-3l0-17.22a4.33,4.33,0,0,0-1.14-3,3.74,3.74,0,0,0-2.88-1.25,3.91,3.91,0,0,0-2.88,1.22,4.21,4.21,0,0,0-1.19,3.07v17.22a4.34,4.34,0,0,0,1.19,3.07A3.81,3.81,0,0,0,251.91,247.16Z"/><path d="M278,253.19c-.29,0-.43-.13-.43-.38l-.06-37a.38.38,0,0,1,.44-.43h4.89l9.18,21.4-.28-21c0-.29.17-.43.49-.43h5.38c.22,0,.33.14.33.43l0,37q0,.33-.27.33H293l-9.4-20,.38,19.56c0,.29-.16.43-.49.43Z"/><path d="M331.75,253.19a.24.24,0,0,1-.27-.27v-6.14a.31.31,0,0,1,.11-.22L345,228.15a4.18,4.18,0,0,0,.63-1.27,4.89,4.89,0,0,0,.24-1.39,4.39,4.39,0,0,0-1.14-2.91,3.65,3.65,0,0,0-2.88-1.33,3.73,3.73,0,0,0-2.85,1.28,4.6,4.6,0,0,0-1.17,3.23v2.66a.24.24,0,0,1-.27.27h-6.08c-.15,0-.22-.09-.22-.27v-2.66a10.65,10.65,0,0,1,1.49-5.54,11.41,11.41,0,0,1,3.91-4,10.07,10.07,0,0,1,10.51,0,11.38,11.38,0,0,1,3.83,3.94,10.22,10.22,0,0,1,1.44,5.27,11.78,11.78,0,0,1-2.33,6.9l-10.32,14.17H352a.2.2,0,0,1,.22.22v6.14c0,.18-.08.27-.22.27Z"/><path d="M75.9,192a8.93,8.93,0,0,1-2.33-6.26,13,13,0,0,1,.43-3.2l15.44-59.42C82,128.67,75.9,138.72,75.9,147a12,12,0,0,0,2,7c-3.49,2.48-6.4,3.5-8.73,3.5-3.64,0-5.83-2.48-7.28-5.83,1.89-22.57,25.33-43.4,43-43.4,16.74,0,22,13.84,22,26.51,0,28-13.69,70.05-50.68,70.05-13.11,0-18.5-5.83-18.5-12.09a14.29,14.29,0,0,1,3.21-8.59C63.66,191.15,72.4,192,75.9,192Zm14.7-69.61c2.33,1.17,8.45,4.51,8.45,11.21a12.67,12.67,0,0,1-.44,3.21l-14,53.44c11.07-4.36,28.26-20.24,28.26-62.33-.73-5.82-4.52-9.46-10.49-9.46A22.31,22.31,0,0,0,90.6,122.41Z"/><path d="M123.37,185.61c0-18.2,12.38-32.91,20.1-32.91,5.39,0,8.59,2.19,8.59,5.83,0,7.57-11.79,22.13-17.18,28.39a7.28,7.28,0,0,0,3.93,1.17c4.22,0,9.47-3.35,13.69-10.78h2.77c-5.83,11.94-13.11,20.54-22.87,20.54C125.41,197.7,123.37,191.88,123.37,185.61Zm7.87-6.69A10.11,10.11,0,0,0,132.4,184c9.76-10.92,12.53-15.58,12.53-19.95,0-1.31-.59-2.48-3.06-2.48-3.64,0-9.76,5.54-10.49,15.59A7.35,7.35,0,0,0,131.24,178.92Z"/><path d="M150.75,188.67a48.79,48.79,0,0,1,1.75-11.5l13.4-51.26s7.57,2.62,7.57,9.32a8.12,8.12,0,0,1-.29,2.62L163,177.17a32.59,32.59,0,0,0-1.31,7.72c0,3.64,1.61,4.36,2.77,4.36,2.77,0,5.24-5.24,7.72-11.94h2.77c-4.37,11.51-9.91,20.54-17.48,20.54C152.94,197.85,150.75,194.79,150.75,188.67Z"/><path d="M170.27,189.11a45.44,45.44,0,0,1,1.89-11.8l7.14-27.67h-5.83s.58-9.17,8.45-10l3.64-13.68s7.42,2.62,7.42,9.32a8.12,8.12,0,0,1-.29,2.62l-.29,1.74h6.7s-.44,9.76-9.32,10l-7.13,27.53a32.19,32.19,0,0,0-1.32,7.72c0,3.64,1.61,4.36,2.77,4.36,2.48,0,5.1-5.24,7.72-11.94h2.77c-4.52,11.51-10.05,20.54-17.62,20.54C172.6,197.85,170.27,194.93,170.27,189.11Z"/><path d="M199,197.56c-5,0-8-5.25-8-13,0-15.87,11.5-31.89,20-31.89a7.29,7.29,0,0,1,6.41,3.93l1-3.93h10.49l-6.55,24.47a32.08,32.08,0,0,0-1.31,7.72c0,3.64,1.6,4.36,2.76,4.36,2.77,0,5.1-5.24,7.72-11.94h2.77c-4.52,11.51-10.2,20.54-17.62,20.54-4.08,0-6.12-2.33-6.56-7.14C206.53,194.93,202.6,197.56,199,197.56Zm13.39-22.72.88-2.92a32,32,0,0,0,.29-3.49c0-4.08-1.46-6.85-4.22-6.85-4.52,0-10.64,8.45-10.64,17,0,4.08,1.46,6.7,4.23,6.7C206.09,185.32,210.61,180.66,212.35,174.84Z"/><path d="M300.31,108.72c6.7,0,11.8,1.46,14.28,4.81,4.37-4.23,8.3-5.1,10.92-5.1A9.35,9.35,0,0,1,329,109c-7,2.91-10.48,17.91-11.94,23.89C313.28,144.69,307,147,302.64,147a11.8,11.8,0,0,1-4.51-.87,106.15,106.15,0,0,1,5.68-15.44c0-3.35-2-4.8-6.55-4.8-7.58,0-15,11.94-21,31.31a55.8,55.8,0,0,0-2.77,16.16c0,9.47,3.78,14.86,10.19,14.86,8.16,0,20.68-9.32,34.37-31h5.24c-11.21,23.88-25.48,40.92-45,40.92h-.14c-12.67,0-17.91-9.47-17.91-23.3a78.39,78.39,0,0,1,2.18-17.62C268.57,129.25,286.62,108.72,300.31,108.72Z"/><path d="M321.43,177.31c2-6.26,3.21-8.88,5.54-16.89-3.35,0-5.1-3.5-5.1-7.28,0-4.66,2.62-9.47,8.16-9.47,3.05,0,6.11,1.6,6.11,5.1s-4.08,3.93-6,3.93h-1a3.27,3.27,0,0,0,2.19.73c5,0,1.74-1.31,8.44-1.31,3.93,0,7.28,1.46,7.28,6.55,0,4.08-1.89,10.2-4.22,18.5-.73,3.93-1.89,7-1.89,9.17,0,1.75.87,2.77,3.78,2.77,2.62,0,4.95-5,7.72-11.8h2.77c-4.66,11.36-7,20.54-17.62,20.54-4.52,0-7.72-2.77-7.72-9,0-7,6.84-22.87,6.84-26.94,0-1.17-.43-1.75-1.16-1.75-1.31,0-3.35.44-6.12.44-2,6.55-3.06,10.48-5.24,16.74Z"/><path d="M359.59,197.56c-4.95,0-8-5.25-8-13,0-15.87,11.5-31.89,19.95-31.89a7.27,7.27,0,0,1,6.41,3.93l1-3.93h10.48l-6.55,24.47a32.59,32.59,0,0,0-1.31,7.72c0,3.64,1.6,4.36,2.77,4.36,2.76,0,5.09-5.24,7.71-11.94h2.77c-4.51,11.51-10.19,20.54-17.62,20.54-4.08,0-6.12-2.33-6.55-7.14C367.16,194.93,363.23,197.56,359.59,197.56ZM373,174.84l.87-2.92a29.64,29.64,0,0,0,.29-3.49c0-4.08-1.45-6.85-4.22-6.85-4.52,0-10.63,8.45-10.63,17,0,4.08,1.45,6.7,4.22,6.7C366.72,185.32,371.24,180.66,373,174.84Z"/><path d="M379.54,224.79l14.56-55.92c3.79-13.69,10.78-16.17,14.71-16.17,3.35,0,7,2.48,7,6.41,0,6.26-7.42,10.19-11.94,13.25l-.58,1.17h10.19l-2.18,7.13h-9.76l-7.43,28.11C390.46,222.6,383.62,224.79,379.54,224.79Zm26.36-60.15c2.62-1.74,4.51-2.47,4.51-3.93a2.05,2.05,0,0,0-1.74-2c-.73,0-1.46.58-1.9,2.19Z"/><path d="M413.47,189.11a45.09,45.09,0,0,1,1.9-11.8l7.13-27.67h-5.82s.58-9.17,8.44-10l3.64-13.68s7.43,2.62,7.43,9.32a8.12,8.12,0,0,1-.29,2.62l-.29,1.74h6.7s-.44,9.76-9.32,10l-7.14,27.53a32.59,32.59,0,0,0-1.31,7.72c0,3.64,1.6,4.36,2.77,4.36,2.47,0,5.09-5.24,7.72-11.94h2.76c-4.51,11.51-10.05,20.54-17.62,20.54C415.8,197.85,413.47,194.93,413.47,189.11Z"/><path d="M367.08,273l19.41-75.11H397L388.79,229S378.66,274.74,367.08,273Z"/></g></g></svg>